<mxfile host="Electron" agent="Mozilla/5.0 (Windows NT 10.0; Win64; x64) AppleWebKit/537.36 (KHTML, like Gecko) draw.io/28.1.2 Chrome/138.0.7204.243 Electron/37.4.0 Safari/537.36" version="28.1.2">
  <diagram name="PÃ¡gina-1" id="QZcjN6GB_tbRETWQNpX0">
    <mxGraphModel dx="872" dy="537" grid="1" gridSize="10" guides="1" tooltips="1" connect="1" arrows="1" fold="1" page="1" pageScale="1" pageWidth="827" pageHeight="1169" math="0" shadow="0">
      <root>
        <mxCell id="0" />
        <mxCell id="1" parent="0" />
        <mxCell id="aOviVYWQGmaZAuCbiNx9-1" value="USUARIO" style="rounded=1;whiteSpace=wrap;html=1;" parent="1" vertex="1">
          <mxGeometry x="360" y="90" width="120" height="60" as="geometry" />
        </mxCell>
        <mxCell id="aOviVYWQGmaZAuCbiNx9-2" value="AMISTAD" style="rounded=1;whiteSpace=wrap;html=1;" parent="1" vertex="1">
          <mxGeometry x="360" y="340" width="120" height="60" as="geometry" />
        </mxCell>
        <mxCell id="aOviVYWQGmaZAuCbiNx9-3" value="PUBLICACIONES" style="rounded=1;whiteSpace=wrap;html=1;" parent="1" vertex="1">
          <mxGeometry x="640" y="150" width="120" height="60" as="geometry" />
        </mxCell>
        <mxCell id="aOviVYWQGmaZAuCbiNx9-4" value="COMENTARIOS" style="rounded=1;whiteSpace=wrap;html=1;" parent="1" vertex="1">
          <mxGeometry x="70" y="150" width="120" height="60" as="geometry" />
        </mxCell>
        <mxCell id="2fD0GMlcrF7oddVOyDe7-2" value="id_usuario PK" style="ellipse;whiteSpace=wrap;html=1;" parent="1" vertex="1">
          <mxGeometry x="340" y="30" width="70" height="50" as="geometry" />
        </mxCell>
        <mxCell id="2fD0GMlcrF7oddVOyDe7-3" value="nombre" style="ellipse;whiteSpace=wrap;html=1;" parent="1" vertex="1">
          <mxGeometry x="430" y="30" width="70" height="50" as="geometry" />
        </mxCell>
        <mxCell id="2fD0GMlcrF7oddVOyDe7-5" value="email" style="ellipse;whiteSpace=wrap;html=1;" parent="1" vertex="1">
          <mxGeometry x="330" y="160" width="70" height="50" as="geometry" />
        </mxCell>
        <mxCell id="2fD0GMlcrF7oddVOyDe7-6" value="fecha&lt;div&gt;registro&lt;/div&gt;" style="ellipse;whiteSpace=wrap;html=1;" parent="1" vertex="1">
          <mxGeometry x="430" y="160" width="70" height="50" as="geometry" />
        </mxCell>
        <mxCell id="2fD0GMlcrF7oddVOyDe7-9" value="id_publicacion&lt;div&gt;PK&lt;/div&gt;" style="ellipse;whiteSpace=wrap;html=1;" parent="1" vertex="1">
          <mxGeometry x="610" y="80" width="90" height="60" as="geometry" />
        </mxCell>
        <mxCell id="2fD0GMlcrF7oddVOyDe7-10" value="fecha" style="ellipse;whiteSpace=wrap;html=1;" parent="1" vertex="1">
          <mxGeometry x="710" y="80" width="90" height="60" as="geometry" />
        </mxCell>
        <mxCell id="2fD0GMlcrF7oddVOyDe7-11" value="contenido" style="ellipse;whiteSpace=wrap;html=1;" parent="1" vertex="1">
          <mxGeometry x="610" y="215" width="70" height="50" as="geometry" />
        </mxCell>
        <mxCell id="2fD0GMlcrF7oddVOyDe7-12" value="id_usuario&lt;div&gt;FK&lt;/div&gt;" style="ellipse;whiteSpace=wrap;html=1;" parent="1" vertex="1">
          <mxGeometry x="720" y="215" width="70" height="50" as="geometry" />
        </mxCell>
        <mxCell id="2fD0GMlcrF7oddVOyDe7-13" value="id_comentario&lt;div&gt;PK&lt;/div&gt;" style="ellipse;whiteSpace=wrap;html=1;" parent="1" vertex="1">
          <mxGeometry x="40" y="80" width="90" height="60" as="geometry" />
        </mxCell>
        <mxCell id="2fD0GMlcrF7oddVOyDe7-14" value="contenido" style="ellipse;whiteSpace=wrap;html=1;" parent="1" vertex="1">
          <mxGeometry x="140" y="80" width="90" height="60" as="geometry" />
        </mxCell>
        <mxCell id="2fD0GMlcrF7oddVOyDe7-15" value="fecha" style="ellipse;whiteSpace=wrap;html=1;" parent="1" vertex="1">
          <mxGeometry x="10" y="220" width="80" height="45" as="geometry" />
        </mxCell>
        <mxCell id="2fD0GMlcrF7oddVOyDe7-16" value="id_publicacion&amp;nbsp;&lt;div&gt;FK&lt;/div&gt;" style="ellipse;whiteSpace=wrap;html=1;" parent="1" vertex="1">
          <mxGeometry x="85" y="250" width="90" height="55" as="geometry" />
        </mxCell>
        <mxCell id="2fD0GMlcrF7oddVOyDe7-17" value="id_usuario&amp;nbsp;&lt;div&gt;FK&lt;/div&gt;" style="ellipse;whiteSpace=wrap;html=1;" parent="1" vertex="1">
          <mxGeometry x="170" y="220" width="80" height="45" as="geometry" />
        </mxCell>
        <mxCell id="2fD0GMlcrF7oddVOyDe7-18" value="Publica" style="rhombus;whiteSpace=wrap;html=1;" parent="1" vertex="1">
          <mxGeometry x="540" y="130" width="60" height="60" as="geometry" />
        </mxCell>
        <mxCell id="2fD0GMlcrF7oddVOyDe7-19" value="comenta" style="rhombus;whiteSpace=wrap;html=1;" parent="1" vertex="1">
          <mxGeometry x="240" y="130" width="60" height="60" as="geometry" />
        </mxCell>
        <mxCell id="2fD0GMlcrF7oddVOyDe7-20" value="es amigo&lt;div&gt;de&lt;/div&gt;" style="rhombus;whiteSpace=wrap;html=1;" parent="1" vertex="1">
          <mxGeometry x="380" y="210" width="80" height="80" as="geometry" />
        </mxCell>
        <mxCell id="2fD0GMlcrF7oddVOyDe7-21" value="id_usuario1&amp;nbsp;&lt;div&gt;FK&lt;/div&gt;" style="ellipse;whiteSpace=wrap;html=1;" parent="1" vertex="1">
          <mxGeometry x="310" y="280" width="90" height="50" as="geometry" />
        </mxCell>
        <mxCell id="2fD0GMlcrF7oddVOyDe7-22" value="id_usuario2&lt;div&gt;FK&lt;/div&gt;" style="ellipse;whiteSpace=wrap;html=1;" parent="1" vertex="1">
          <mxGeometry x="445" y="280" width="85" height="50" as="geometry" />
        </mxCell>
        <mxCell id="2fD0GMlcrF7oddVOyDe7-23" value="fecha_amistad" style="ellipse;whiteSpace=wrap;html=1;" parent="1" vertex="1">
          <mxGeometry x="375" y="420" width="90" height="50" as="geometry" />
        </mxCell>
        <mxCell id="2fD0GMlcrF7oddVOyDe7-26" value="" style="endArrow=none;html=1;rounded=0;exitX=1;exitY=0;exitDx=0;exitDy=0;" parent="1" source="2fD0GMlcrF7oddVOyDe7-19" target="aOviVYWQGmaZAuCbiNx9-1" edge="1">
          <mxGeometry width="50" height="50" relative="1" as="geometry">
            <mxPoint x="290" y="170" as="sourcePoint" />
            <mxPoint x="340" y="120" as="targetPoint" />
          </mxGeometry>
        </mxCell>
        <mxCell id="2fD0GMlcrF7oddVOyDe7-27" value="" style="endArrow=none;html=1;rounded=0;entryX=0;entryY=1;entryDx=0;entryDy=0;" parent="1" source="aOviVYWQGmaZAuCbiNx9-4" target="2fD0GMlcrF7oddVOyDe7-19" edge="1">
          <mxGeometry width="50" height="50" relative="1" as="geometry">
            <mxPoint x="210" y="220" as="sourcePoint" />
            <mxPoint x="260" y="170" as="targetPoint" />
          </mxGeometry>
        </mxCell>
        <mxCell id="2fD0GMlcrF7oddVOyDe7-28" value="" style="endArrow=none;html=1;rounded=0;entryX=0;entryY=0;entryDx=0;entryDy=0;" parent="1" source="aOviVYWQGmaZAuCbiNx9-1" target="2fD0GMlcrF7oddVOyDe7-18" edge="1">
          <mxGeometry width="50" height="50" relative="1" as="geometry">
            <mxPoint x="460" y="130" as="sourcePoint" />
            <mxPoint x="510" y="80" as="targetPoint" />
          </mxGeometry>
        </mxCell>
        <mxCell id="2fD0GMlcrF7oddVOyDe7-29" value="" style="endArrow=none;html=1;rounded=0;exitX=0.817;exitY=0.65;exitDx=0;exitDy=0;exitPerimeter=0;" parent="1" source="2fD0GMlcrF7oddVOyDe7-18" target="aOviVYWQGmaZAuCbiNx9-3" edge="1">
          <mxGeometry width="50" height="50" relative="1" as="geometry">
            <mxPoint x="540" y="230" as="sourcePoint" />
            <mxPoint x="590" y="180" as="targetPoint" />
          </mxGeometry>
        </mxCell>
        <mxCell id="2fD0GMlcrF7oddVOyDe7-30" value="" style="endArrow=none;html=1;rounded=0;entryX=0.5;entryY=1;entryDx=0;entryDy=0;exitX=0.5;exitY=0;exitDx=0;exitDy=0;" parent="1" source="2fD0GMlcrF7oddVOyDe7-20" target="aOviVYWQGmaZAuCbiNx9-1" edge="1">
          <mxGeometry width="50" height="50" relative="1" as="geometry">
            <mxPoint x="360" y="225" as="sourcePoint" />
            <mxPoint x="410" y="175" as="targetPoint" />
          </mxGeometry>
        </mxCell>
        <mxCell id="2fD0GMlcrF7oddVOyDe7-31" value="" style="endArrow=none;html=1;rounded=0;entryX=0.5;entryY=1;entryDx=0;entryDy=0;exitX=0.5;exitY=0;exitDx=0;exitDy=0;" parent="1" source="aOviVYWQGmaZAuCbiNx9-2" target="2fD0GMlcrF7oddVOyDe7-20" edge="1">
          <mxGeometry width="50" height="50" relative="1" as="geometry">
            <mxPoint x="360" y="380" as="sourcePoint" />
            <mxPoint x="410" y="330" as="targetPoint" />
          </mxGeometry>
        </mxCell>
        <mxCell id="2fD0GMlcrF7oddVOyDe7-32" value="" style="endArrow=none;html=1;rounded=0;entryX=0.5;entryY=1;entryDx=0;entryDy=0;exitX=0.75;exitY=0;exitDx=0;exitDy=0;" parent="1" source="aOviVYWQGmaZAuCbiNx9-4" target="2fD0GMlcrF7oddVOyDe7-14" edge="1">
          <mxGeometry width="50" height="50" relative="1" as="geometry">
            <mxPoint x="145" y="180" as="sourcePoint" />
            <mxPoint x="195" y="130" as="targetPoint" />
          </mxGeometry>
        </mxCell>
        <mxCell id="2fD0GMlcrF7oddVOyDe7-33" value="" style="endArrow=none;html=1;rounded=0;entryX=0.5;entryY=1;entryDx=0;entryDy=0;" parent="1" source="aOviVYWQGmaZAuCbiNx9-4" target="2fD0GMlcrF7oddVOyDe7-13" edge="1">
          <mxGeometry width="50" height="50" relative="1" as="geometry">
            <mxPoint x="35" y="180" as="sourcePoint" />
            <mxPoint x="85" y="130" as="targetPoint" />
          </mxGeometry>
        </mxCell>
        <mxCell id="2fD0GMlcrF7oddVOyDe7-34" value="" style="endArrow=none;html=1;rounded=0;exitX=0.5;exitY=0;exitDx=0;exitDy=0;" parent="1" source="2fD0GMlcrF7oddVOyDe7-16" target="aOviVYWQGmaZAuCbiNx9-4" edge="1">
          <mxGeometry width="50" height="50" relative="1" as="geometry">
            <mxPoint x="105" y="260" as="sourcePoint" />
            <mxPoint x="155" y="210" as="targetPoint" />
          </mxGeometry>
        </mxCell>
        <mxCell id="2fD0GMlcrF7oddVOyDe7-35" value="" style="endArrow=none;html=1;rounded=0;entryX=0.125;entryY=0.967;entryDx=0;entryDy=0;entryPerimeter=0;exitX=0.763;exitY=0.089;exitDx=0;exitDy=0;exitPerimeter=0;" parent="1" source="2fD0GMlcrF7oddVOyDe7-15" target="aOviVYWQGmaZAuCbiNx9-4" edge="1">
          <mxGeometry width="50" height="50" relative="1" as="geometry">
            <mxPoint x="50" y="270" as="sourcePoint" />
            <mxPoint x="100" y="220" as="targetPoint" />
          </mxGeometry>
        </mxCell>
        <mxCell id="2fD0GMlcrF7oddVOyDe7-36" value="" style="endArrow=none;html=1;rounded=0;entryX=0.883;entryY=1;entryDx=0;entryDy=0;entryPerimeter=0;" parent="1" source="2fD0GMlcrF7oddVOyDe7-17" target="aOviVYWQGmaZAuCbiNx9-4" edge="1">
          <mxGeometry width="50" height="50" relative="1" as="geometry">
            <mxPoint x="145" y="270" as="sourcePoint" />
            <mxPoint x="195" y="220" as="targetPoint" />
          </mxGeometry>
        </mxCell>
        <mxCell id="2fD0GMlcrF7oddVOyDe7-37" value="" style="endArrow=none;html=1;rounded=0;" parent="1" source="aOviVYWQGmaZAuCbiNx9-1" target="2fD0GMlcrF7oddVOyDe7-2" edge="1">
          <mxGeometry width="50" height="50" relative="1" as="geometry">
            <mxPoint x="300" y="130" as="sourcePoint" />
            <mxPoint x="350" y="80" as="targetPoint" />
          </mxGeometry>
        </mxCell>
        <mxCell id="2fD0GMlcrF7oddVOyDe7-38" value="" style="endArrow=none;html=1;rounded=0;" parent="1" source="aOviVYWQGmaZAuCbiNx9-1" target="2fD0GMlcrF7oddVOyDe7-3" edge="1">
          <mxGeometry width="50" height="50" relative="1" as="geometry">
            <mxPoint x="389" y="130" as="sourcePoint" />
            <mxPoint x="439" y="80" as="targetPoint" />
          </mxGeometry>
        </mxCell>
        <mxCell id="2fD0GMlcrF7oddVOyDe7-39" value="" style="endArrow=none;html=1;rounded=0;entryX=0.25;entryY=1;entryDx=0;entryDy=0;" parent="1" source="2fD0GMlcrF7oddVOyDe7-5" target="aOviVYWQGmaZAuCbiNx9-1" edge="1">
          <mxGeometry width="50" height="50" relative="1" as="geometry">
            <mxPoint x="305" y="210" as="sourcePoint" />
            <mxPoint x="355" y="160" as="targetPoint" />
          </mxGeometry>
        </mxCell>
        <mxCell id="2fD0GMlcrF7oddVOyDe7-40" value="" style="endArrow=none;html=1;rounded=0;entryX=0.75;entryY=1;entryDx=0;entryDy=0;" parent="1" source="2fD0GMlcrF7oddVOyDe7-6" target="aOviVYWQGmaZAuCbiNx9-1" edge="1">
          <mxGeometry width="50" height="50" relative="1" as="geometry">
            <mxPoint x="380" y="220" as="sourcePoint" />
            <mxPoint x="430" y="170" as="targetPoint" />
          </mxGeometry>
        </mxCell>
        <mxCell id="2fD0GMlcrF7oddVOyDe7-41" value="" style="endArrow=none;html=1;rounded=0;" parent="1" source="aOviVYWQGmaZAuCbiNx9-3" target="2fD0GMlcrF7oddVOyDe7-9" edge="1">
          <mxGeometry width="50" height="50" relative="1" as="geometry">
            <mxPoint x="550" y="175" as="sourcePoint" />
            <mxPoint x="600" y="125" as="targetPoint" />
          </mxGeometry>
        </mxCell>
        <mxCell id="2fD0GMlcrF7oddVOyDe7-42" value="" style="endArrow=none;html=1;rounded=0;" parent="1" source="aOviVYWQGmaZAuCbiNx9-3" target="2fD0GMlcrF7oddVOyDe7-10" edge="1">
          <mxGeometry width="50" height="50" relative="1" as="geometry">
            <mxPoint x="660" y="180" as="sourcePoint" />
            <mxPoint x="710" y="130" as="targetPoint" />
          </mxGeometry>
        </mxCell>
        <mxCell id="2fD0GMlcrF7oddVOyDe7-43" value="" style="endArrow=none;html=1;rounded=0;" parent="1" source="2fD0GMlcrF7oddVOyDe7-11" target="aOviVYWQGmaZAuCbiNx9-3" edge="1">
          <mxGeometry width="50" height="50" relative="1" as="geometry">
            <mxPoint x="590" y="272.5" as="sourcePoint" />
            <mxPoint x="640" y="222.5" as="targetPoint" />
          </mxGeometry>
        </mxCell>
        <mxCell id="2fD0GMlcrF7oddVOyDe7-44" value="" style="endArrow=none;html=1;rounded=0;" parent="1" source="2fD0GMlcrF7oddVOyDe7-12" target="aOviVYWQGmaZAuCbiNx9-3" edge="1">
          <mxGeometry width="50" height="50" relative="1" as="geometry">
            <mxPoint x="625" y="270" as="sourcePoint" />
            <mxPoint x="675" y="220" as="targetPoint" />
          </mxGeometry>
        </mxCell>
        <mxCell id="2fD0GMlcrF7oddVOyDe7-45" value="" style="endArrow=none;html=1;rounded=0;" parent="1" source="aOviVYWQGmaZAuCbiNx9-2" target="2fD0GMlcrF7oddVOyDe7-22" edge="1">
          <mxGeometry width="50" height="50" relative="1" as="geometry">
            <mxPoint x="400" y="420" as="sourcePoint" />
            <mxPoint x="450" y="370" as="targetPoint" />
          </mxGeometry>
        </mxCell>
        <mxCell id="2fD0GMlcrF7oddVOyDe7-46" value="" style="endArrow=none;html=1;rounded=0;" parent="1" source="aOviVYWQGmaZAuCbiNx9-2" target="2fD0GMlcrF7oddVOyDe7-21" edge="1">
          <mxGeometry width="50" height="50" relative="1" as="geometry">
            <mxPoint x="260" y="430" as="sourcePoint" />
            <mxPoint x="310" y="380" as="targetPoint" />
          </mxGeometry>
        </mxCell>
        <mxCell id="2fD0GMlcrF7oddVOyDe7-47" value="" style="endArrow=none;html=1;rounded=0;" parent="1" source="2fD0GMlcrF7oddVOyDe7-23" target="aOviVYWQGmaZAuCbiNx9-2" edge="1">
          <mxGeometry width="50" height="50" relative="1" as="geometry">
            <mxPoint x="340" y="510" as="sourcePoint" />
            <mxPoint x="390" y="460" as="targetPoint" />
          </mxGeometry>
        </mxCell>
        <mxCell id="CWKQkK011dTpoDnvCcvi-1" value="USUARIO" style="shape=table;startSize=30;container=1;collapsible=1;childLayout=tableLayout;fixedRows=1;rowLines=0;fontStyle=1;align=center;resizeLast=1;html=1;" vertex="1" parent="1">
          <mxGeometry x="330" y="540" width="180" height="150" as="geometry" />
        </mxCell>
        <mxCell id="CWKQkK011dTpoDnvCcvi-2" value="" style="shape=tableRow;horizontal=0;startSize=0;swimlaneHead=0;swimlaneBody=0;fillColor=none;collapsible=0;dropTarget=0;points=[[0,0.5],[1,0.5]];portConstraint=eastwest;top=0;left=0;right=0;bottom=1;" vertex="1" parent="CWKQkK011dTpoDnvCcvi-1">
          <mxGeometry y="30" width="180" height="30" as="geometry" />
        </mxCell>
        <mxCell id="CWKQkK011dTpoDnvCcvi-3" value="PK" style="shape=partialRectangle;connectable=0;fillColor=none;top=0;left=0;bottom=0;right=0;fontStyle=1;overflow=hidden;whiteSpace=wrap;html=1;" vertex="1" parent="CWKQkK011dTpoDnvCcvi-2">
          <mxGeometry width="30" height="30" as="geometry">
            <mxRectangle width="30" height="30" as="alternateBounds" />
          </mxGeometry>
        </mxCell>
        <mxCell id="CWKQkK011dTpoDnvCcvi-4" value="id_usuario" style="shape=partialRectangle;connectable=0;fillColor=none;top=0;left=0;bottom=0;right=0;align=left;spacingLeft=6;fontStyle=5;overflow=hidden;whiteSpace=wrap;html=1;" vertex="1" parent="CWKQkK011dTpoDnvCcvi-2">
          <mxGeometry x="30" width="150" height="30" as="geometry">
            <mxRectangle width="150" height="30" as="alternateBounds" />
          </mxGeometry>
        </mxCell>
        <mxCell id="CWKQkK011dTpoDnvCcvi-5" value="" style="shape=tableRow;horizontal=0;startSize=0;swimlaneHead=0;swimlaneBody=0;fillColor=none;collapsible=0;dropTarget=0;points=[[0,0.5],[1,0.5]];portConstraint=eastwest;top=0;left=0;right=0;bottom=0;" vertex="1" parent="CWKQkK011dTpoDnvCcvi-1">
          <mxGeometry y="60" width="180" height="30" as="geometry" />
        </mxCell>
        <mxCell id="CWKQkK011dTpoDnvCcvi-6" value="" style="shape=partialRectangle;connectable=0;fillColor=none;top=0;left=0;bottom=0;right=0;editable=1;overflow=hidden;whiteSpace=wrap;html=1;" vertex="1" parent="CWKQkK011dTpoDnvCcvi-5">
          <mxGeometry width="30" height="30" as="geometry">
            <mxRectangle width="30" height="30" as="alternateBounds" />
          </mxGeometry>
        </mxCell>
        <mxCell id="CWKQkK011dTpoDnvCcvi-7" value="nombre" style="shape=partialRectangle;connectable=0;fillColor=none;top=0;left=0;bottom=0;right=0;align=left;spacingLeft=6;overflow=hidden;whiteSpace=wrap;html=1;" vertex="1" parent="CWKQkK011dTpoDnvCcvi-5">
          <mxGeometry x="30" width="150" height="30" as="geometry">
            <mxRectangle width="150" height="30" as="alternateBounds" />
          </mxGeometry>
        </mxCell>
        <mxCell id="CWKQkK011dTpoDnvCcvi-8" value="" style="shape=tableRow;horizontal=0;startSize=0;swimlaneHead=0;swimlaneBody=0;fillColor=none;collapsible=0;dropTarget=0;points=[[0,0.5],[1,0.5]];portConstraint=eastwest;top=0;left=0;right=0;bottom=0;" vertex="1" parent="CWKQkK011dTpoDnvCcvi-1">
          <mxGeometry y="90" width="180" height="30" as="geometry" />
        </mxCell>
        <mxCell id="CWKQkK011dTpoDnvCcvi-9" value="" style="shape=partialRectangle;connectable=0;fillColor=none;top=0;left=0;bottom=0;right=0;editable=1;overflow=hidden;whiteSpace=wrap;html=1;" vertex="1" parent="CWKQkK011dTpoDnvCcvi-8">
          <mxGeometry width="30" height="30" as="geometry">
            <mxRectangle width="30" height="30" as="alternateBounds" />
          </mxGeometry>
        </mxCell>
        <mxCell id="CWKQkK011dTpoDnvCcvi-10" value="email" style="shape=partialRectangle;connectable=0;fillColor=none;top=0;left=0;bottom=0;right=0;align=left;spacingLeft=6;overflow=hidden;whiteSpace=wrap;html=1;" vertex="1" parent="CWKQkK011dTpoDnvCcvi-8">
          <mxGeometry x="30" width="150" height="30" as="geometry">
            <mxRectangle width="150" height="30" as="alternateBounds" />
          </mxGeometry>
        </mxCell>
        <mxCell id="CWKQkK011dTpoDnvCcvi-11" value="" style="shape=tableRow;horizontal=0;startSize=0;swimlaneHead=0;swimlaneBody=0;fillColor=none;collapsible=0;dropTarget=0;points=[[0,0.5],[1,0.5]];portConstraint=eastwest;top=0;left=0;right=0;bottom=0;" vertex="1" parent="CWKQkK011dTpoDnvCcvi-1">
          <mxGeometry y="120" width="180" height="30" as="geometry" />
        </mxCell>
        <mxCell id="CWKQkK011dTpoDnvCcvi-12" value="" style="shape=partialRectangle;connectable=0;fillColor=none;top=0;left=0;bottom=0;right=0;editable=1;overflow=hidden;whiteSpace=wrap;html=1;" vertex="1" parent="CWKQkK011dTpoDnvCcvi-11">
          <mxGeometry width="30" height="30" as="geometry">
            <mxRectangle width="30" height="30" as="alternateBounds" />
          </mxGeometry>
        </mxCell>
        <mxCell id="CWKQkK011dTpoDnvCcvi-13" value="fecha_registro" style="shape=partialRectangle;connectable=0;fillColor=none;top=0;left=0;bottom=0;right=0;align=left;spacingLeft=6;overflow=hidden;whiteSpace=wrap;html=1;" vertex="1" parent="CWKQkK011dTpoDnvCcvi-11">
          <mxGeometry x="30" width="150" height="30" as="geometry">
            <mxRectangle width="150" height="30" as="alternateBounds" />
          </mxGeometry>
        </mxCell>
        <mxCell id="CWKQkK011dTpoDnvCcvi-14" value="COMENTARIOS" style="shape=table;startSize=30;container=1;collapsible=1;childLayout=tableLayout;fixedRows=1;rowLines=0;fontStyle=1;align=center;resizeLast=1;html=1;whiteSpace=wrap;" vertex="1" parent="1">
          <mxGeometry x="60" y="540" width="180" height="180" as="geometry" />
        </mxCell>
        <mxCell id="CWKQkK011dTpoDnvCcvi-27" value="" style="shape=tableRow;horizontal=0;startSize=0;swimlaneHead=0;swimlaneBody=0;fillColor=none;collapsible=0;dropTarget=0;points=[[0,0.5],[1,0.5]];portConstraint=eastwest;top=0;left=0;right=0;bottom=1;html=1;" vertex="1" parent="CWKQkK011dTpoDnvCcvi-14">
          <mxGeometry y="30" width="180" height="30" as="geometry" />
        </mxCell>
        <mxCell id="CWKQkK011dTpoDnvCcvi-28" value="PK" style="shape=partialRectangle;connectable=0;fillColor=none;top=0;left=0;bottom=0;right=0;fontStyle=1;overflow=hidden;html=1;whiteSpace=wrap;" vertex="1" parent="CWKQkK011dTpoDnvCcvi-27">
          <mxGeometry width="60" height="30" as="geometry">
            <mxRectangle width="60" height="30" as="alternateBounds" />
          </mxGeometry>
        </mxCell>
        <mxCell id="CWKQkK011dTpoDnvCcvi-29" value="id_comentario" style="shape=partialRectangle;connectable=0;fillColor=none;top=0;left=0;bottom=0;right=0;align=left;spacingLeft=6;fontStyle=5;overflow=hidden;html=1;whiteSpace=wrap;" vertex="1" parent="CWKQkK011dTpoDnvCcvi-27">
          <mxGeometry x="60" width="120" height="30" as="geometry">
            <mxRectangle width="120" height="30" as="alternateBounds" />
          </mxGeometry>
        </mxCell>
        <mxCell id="CWKQkK011dTpoDnvCcvi-15" value="" style="shape=tableRow;horizontal=0;startSize=0;swimlaneHead=0;swimlaneBody=0;fillColor=none;collapsible=0;dropTarget=0;points=[[0,0.5],[1,0.5]];portConstraint=eastwest;top=0;left=0;right=0;bottom=0;html=1;" vertex="1" parent="CWKQkK011dTpoDnvCcvi-14">
          <mxGeometry y="60" width="180" height="30" as="geometry" />
        </mxCell>
        <mxCell id="CWKQkK011dTpoDnvCcvi-16" value="FK1" style="shape=partialRectangle;connectable=0;fillColor=none;top=0;left=0;bottom=0;right=0;fontStyle=1;overflow=hidden;html=1;whiteSpace=wrap;" vertex="1" parent="CWKQkK011dTpoDnvCcvi-15">
          <mxGeometry width="60" height="30" as="geometry">
            <mxRectangle width="60" height="30" as="alternateBounds" />
          </mxGeometry>
        </mxCell>
        <mxCell id="CWKQkK011dTpoDnvCcvi-17" value="id_usuario" style="shape=partialRectangle;connectable=0;fillColor=none;top=0;left=0;bottom=0;right=0;align=left;spacingLeft=6;fontStyle=5;overflow=hidden;html=1;whiteSpace=wrap;" vertex="1" parent="CWKQkK011dTpoDnvCcvi-15">
          <mxGeometry x="60" width="120" height="30" as="geometry">
            <mxRectangle width="120" height="30" as="alternateBounds" />
          </mxGeometry>
        </mxCell>
        <mxCell id="CWKQkK011dTpoDnvCcvi-18" value="" style="shape=tableRow;horizontal=0;startSize=0;swimlaneHead=0;swimlaneBody=0;fillColor=none;collapsible=0;dropTarget=0;points=[[0,0.5],[1,0.5]];portConstraint=eastwest;top=0;left=0;right=0;bottom=1;html=1;" vertex="1" parent="CWKQkK011dTpoDnvCcvi-14">
          <mxGeometry y="90" width="180" height="30" as="geometry" />
        </mxCell>
        <mxCell id="CWKQkK011dTpoDnvCcvi-19" value="FK2" style="shape=partialRectangle;connectable=0;fillColor=none;top=0;left=0;bottom=0;right=0;fontStyle=1;overflow=hidden;html=1;whiteSpace=wrap;" vertex="1" parent="CWKQkK011dTpoDnvCcvi-18">
          <mxGeometry width="60" height="30" as="geometry">
            <mxRectangle width="60" height="30" as="alternateBounds" />
          </mxGeometry>
        </mxCell>
        <mxCell id="CWKQkK011dTpoDnvCcvi-20" value="id_publicacion" style="shape=partialRectangle;connectable=0;fillColor=none;top=0;left=0;bottom=0;right=0;align=left;spacingLeft=6;fontStyle=5;overflow=hidden;html=1;whiteSpace=wrap;" vertex="1" parent="CWKQkK011dTpoDnvCcvi-18">
          <mxGeometry x="60" width="120" height="30" as="geometry">
            <mxRectangle width="120" height="30" as="alternateBounds" />
          </mxGeometry>
        </mxCell>
        <mxCell id="CWKQkK011dTpoDnvCcvi-21" value="" style="shape=tableRow;horizontal=0;startSize=0;swimlaneHead=0;swimlaneBody=0;fillColor=none;collapsible=0;dropTarget=0;points=[[0,0.5],[1,0.5]];portConstraint=eastwest;top=0;left=0;right=0;bottom=0;html=1;" vertex="1" parent="CWKQkK011dTpoDnvCcvi-14">
          <mxGeometry y="120" width="180" height="30" as="geometry" />
        </mxCell>
        <mxCell id="CWKQkK011dTpoDnvCcvi-22" value="" style="shape=partialRectangle;connectable=0;fillColor=none;top=0;left=0;bottom=0;right=0;editable=1;overflow=hidden;html=1;whiteSpace=wrap;" vertex="1" parent="CWKQkK011dTpoDnvCcvi-21">
          <mxGeometry width="60" height="30" as="geometry">
            <mxRectangle width="60" height="30" as="alternateBounds" />
          </mxGeometry>
        </mxCell>
        <mxCell id="CWKQkK011dTpoDnvCcvi-23" value="contenido" style="shape=partialRectangle;connectable=0;fillColor=none;top=0;left=0;bottom=0;right=0;align=left;spacingLeft=6;overflow=hidden;html=1;whiteSpace=wrap;" vertex="1" parent="CWKQkK011dTpoDnvCcvi-21">
          <mxGeometry x="60" width="120" height="30" as="geometry">
            <mxRectangle width="120" height="30" as="alternateBounds" />
          </mxGeometry>
        </mxCell>
        <mxCell id="CWKQkK011dTpoDnvCcvi-24" value="" style="shape=tableRow;horizontal=0;startSize=0;swimlaneHead=0;swimlaneBody=0;fillColor=none;collapsible=0;dropTarget=0;points=[[0,0.5],[1,0.5]];portConstraint=eastwest;top=0;left=0;right=0;bottom=0;html=1;" vertex="1" parent="CWKQkK011dTpoDnvCcvi-14">
          <mxGeometry y="150" width="180" height="30" as="geometry" />
        </mxCell>
        <mxCell id="CWKQkK011dTpoDnvCcvi-25" value="" style="shape=partialRectangle;connectable=0;fillColor=none;top=0;left=0;bottom=0;right=0;editable=1;overflow=hidden;html=1;whiteSpace=wrap;" vertex="1" parent="CWKQkK011dTpoDnvCcvi-24">
          <mxGeometry width="60" height="30" as="geometry">
            <mxRectangle width="60" height="30" as="alternateBounds" />
          </mxGeometry>
        </mxCell>
        <mxCell id="CWKQkK011dTpoDnvCcvi-26" value="fecha" style="shape=partialRectangle;connectable=0;fillColor=none;top=0;left=0;bottom=0;right=0;align=left;spacingLeft=6;overflow=hidden;html=1;whiteSpace=wrap;" vertex="1" parent="CWKQkK011dTpoDnvCcvi-24">
          <mxGeometry x="60" width="120" height="30" as="geometry">
            <mxRectangle width="120" height="30" as="alternateBounds" />
          </mxGeometry>
        </mxCell>
        <mxCell id="CWKQkK011dTpoDnvCcvi-30" value="PUBLICACION" style="shape=table;startSize=30;container=1;collapsible=1;childLayout=tableLayout;fixedRows=1;rowLines=0;fontStyle=1;align=center;resizeLast=1;html=1;whiteSpace=wrap;" vertex="1" parent="1">
          <mxGeometry x="590" y="540" width="180" height="150" as="geometry" />
        </mxCell>
        <mxCell id="CWKQkK011dTpoDnvCcvi-31" value="" style="shape=tableRow;horizontal=0;startSize=0;swimlaneHead=0;swimlaneBody=0;fillColor=none;collapsible=0;dropTarget=0;points=[[0,0.5],[1,0.5]];portConstraint=eastwest;top=0;left=0;right=0;bottom=0;html=1;" vertex="1" parent="CWKQkK011dTpoDnvCcvi-30">
          <mxGeometry y="30" width="180" height="30" as="geometry" />
        </mxCell>
        <mxCell id="CWKQkK011dTpoDnvCcvi-32" value="PK" style="shape=partialRectangle;connectable=0;fillColor=none;top=0;left=0;bottom=0;right=0;fontStyle=1;overflow=hidden;html=1;whiteSpace=wrap;" vertex="1" parent="CWKQkK011dTpoDnvCcvi-31">
          <mxGeometry width="60" height="30" as="geometry">
            <mxRectangle width="60" height="30" as="alternateBounds" />
          </mxGeometry>
        </mxCell>
        <mxCell id="CWKQkK011dTpoDnvCcvi-33" value="id_publicacion" style="shape=partialRectangle;connectable=0;fillColor=none;top=0;left=0;bottom=0;right=0;align=left;spacingLeft=6;fontStyle=5;overflow=hidden;html=1;whiteSpace=wrap;" vertex="1" parent="CWKQkK011dTpoDnvCcvi-31">
          <mxGeometry x="60" width="120" height="30" as="geometry">
            <mxRectangle width="120" height="30" as="alternateBounds" />
          </mxGeometry>
        </mxCell>
        <mxCell id="CWKQkK011dTpoDnvCcvi-34" value="" style="shape=tableRow;horizontal=0;startSize=0;swimlaneHead=0;swimlaneBody=0;fillColor=none;collapsible=0;dropTarget=0;points=[[0,0.5],[1,0.5]];portConstraint=eastwest;top=0;left=0;right=0;bottom=1;html=1;" vertex="1" parent="CWKQkK011dTpoDnvCcvi-30">
          <mxGeometry y="60" width="180" height="30" as="geometry" />
        </mxCell>
        <mxCell id="CWKQkK011dTpoDnvCcvi-35" value="FK" style="shape=partialRectangle;connectable=0;fillColor=none;top=0;left=0;bottom=0;right=0;fontStyle=1;overflow=hidden;html=1;whiteSpace=wrap;" vertex="1" parent="CWKQkK011dTpoDnvCcvi-34">
          <mxGeometry width="60" height="30" as="geometry">
            <mxRectangle width="60" height="30" as="alternateBounds" />
          </mxGeometry>
        </mxCell>
        <mxCell id="CWKQkK011dTpoDnvCcvi-36" value="id_usuario" style="shape=partialRectangle;connectable=0;fillColor=none;top=0;left=0;bottom=0;right=0;align=left;spacingLeft=6;fontStyle=5;overflow=hidden;html=1;whiteSpace=wrap;" vertex="1" parent="CWKQkK011dTpoDnvCcvi-34">
          <mxGeometry x="60" width="120" height="30" as="geometry">
            <mxRectangle width="120" height="30" as="alternateBounds" />
          </mxGeometry>
        </mxCell>
        <mxCell id="CWKQkK011dTpoDnvCcvi-37" value="" style="shape=tableRow;horizontal=0;startSize=0;swimlaneHead=0;swimlaneBody=0;fillColor=none;collapsible=0;dropTarget=0;points=[[0,0.5],[1,0.5]];portConstraint=eastwest;top=0;left=0;right=0;bottom=0;html=1;" vertex="1" parent="CWKQkK011dTpoDnvCcvi-30">
          <mxGeometry y="90" width="180" height="30" as="geometry" />
        </mxCell>
        <mxCell id="CWKQkK011dTpoDnvCcvi-38" value="" style="shape=partialRectangle;connectable=0;fillColor=none;top=0;left=0;bottom=0;right=0;editable=1;overflow=hidden;html=1;whiteSpace=wrap;" vertex="1" parent="CWKQkK011dTpoDnvCcvi-37">
          <mxGeometry width="60" height="30" as="geometry">
            <mxRectangle width="60" height="30" as="alternateBounds" />
          </mxGeometry>
        </mxCell>
        <mxCell id="CWKQkK011dTpoDnvCcvi-39" value="Row 3" style="shape=partialRectangle;connectable=0;fillColor=none;top=0;left=0;bottom=0;right=0;align=left;spacingLeft=6;overflow=hidden;html=1;whiteSpace=wrap;" vertex="1" parent="CWKQkK011dTpoDnvCcvi-37">
          <mxGeometry x="60" width="120" height="30" as="geometry">
            <mxRectangle width="120" height="30" as="alternateBounds" />
          </mxGeometry>
        </mxCell>
        <mxCell id="CWKQkK011dTpoDnvCcvi-40" value="" style="shape=tableRow;horizontal=0;startSize=0;swimlaneHead=0;swimlaneBody=0;fillColor=none;collapsible=0;dropTarget=0;points=[[0,0.5],[1,0.5]];portConstraint=eastwest;top=0;left=0;right=0;bottom=0;html=1;" vertex="1" parent="CWKQkK011dTpoDnvCcvi-30">
          <mxGeometry y="120" width="180" height="30" as="geometry" />
        </mxCell>
        <mxCell id="CWKQkK011dTpoDnvCcvi-41" value="" style="shape=partialRectangle;connectable=0;fillColor=none;top=0;left=0;bottom=0;right=0;editable=1;overflow=hidden;html=1;whiteSpace=wrap;" vertex="1" parent="CWKQkK011dTpoDnvCcvi-40">
          <mxGeometry width="60" height="30" as="geometry">
            <mxRectangle width="60" height="30" as="alternateBounds" />
          </mxGeometry>
        </mxCell>
        <mxCell id="CWKQkK011dTpoDnvCcvi-42" value="Row 4" style="shape=partialRectangle;connectable=0;fillColor=none;top=0;left=0;bottom=0;right=0;align=left;spacingLeft=6;overflow=hidden;html=1;whiteSpace=wrap;" vertex="1" parent="CWKQkK011dTpoDnvCcvi-40">
          <mxGeometry x="60" width="120" height="30" as="geometry">
            <mxRectangle width="120" height="30" as="alternateBounds" />
          </mxGeometry>
        </mxCell>
        <mxCell id="CWKQkK011dTpoDnvCcvi-43" value="AMISTAD" style="shape=table;startSize=30;container=1;collapsible=1;childLayout=tableLayout;fixedRows=1;rowLines=0;fontStyle=1;align=center;resizeLast=1;html=1;whiteSpace=wrap;" vertex="1" parent="1">
          <mxGeometry x="324" y="760" width="180" height="120" as="geometry" />
        </mxCell>
        <mxCell id="CWKQkK011dTpoDnvCcvi-44" value="" style="shape=tableRow;horizontal=0;startSize=0;swimlaneHead=0;swimlaneBody=0;fillColor=none;collapsible=0;dropTarget=0;points=[[0,0.5],[1,0.5]];portConstraint=eastwest;top=0;left=0;right=0;bottom=0;html=1;" vertex="1" parent="CWKQkK011dTpoDnvCcvi-43">
          <mxGeometry y="30" width="180" height="30" as="geometry" />
        </mxCell>
        <mxCell id="CWKQkK011dTpoDnvCcvi-45" value="FK1" style="shape=partialRectangle;connectable=0;fillColor=none;top=0;left=0;bottom=0;right=0;fontStyle=1;overflow=hidden;html=1;whiteSpace=wrap;" vertex="1" parent="CWKQkK011dTpoDnvCcvi-44">
          <mxGeometry width="60" height="30" as="geometry">
            <mxRectangle width="60" height="30" as="alternateBounds" />
          </mxGeometry>
        </mxCell>
        <mxCell id="CWKQkK011dTpoDnvCcvi-46" value="id_usuario1" style="shape=partialRectangle;connectable=0;fillColor=none;top=0;left=0;bottom=0;right=0;align=left;spacingLeft=6;fontStyle=5;overflow=hidden;html=1;whiteSpace=wrap;" vertex="1" parent="CWKQkK011dTpoDnvCcvi-44">
          <mxGeometry x="60" width="120" height="30" as="geometry">
            <mxRectangle width="120" height="30" as="alternateBounds" />
          </mxGeometry>
        </mxCell>
        <mxCell id="CWKQkK011dTpoDnvCcvi-47" value="" style="shape=tableRow;horizontal=0;startSize=0;swimlaneHead=0;swimlaneBody=0;fillColor=none;collapsible=0;dropTarget=0;points=[[0,0.5],[1,0.5]];portConstraint=eastwest;top=0;left=0;right=0;bottom=1;html=1;" vertex="1" parent="CWKQkK011dTpoDnvCcvi-43">
          <mxGeometry y="60" width="180" height="30" as="geometry" />
        </mxCell>
        <mxCell id="CWKQkK011dTpoDnvCcvi-48" value="FK2" style="shape=partialRectangle;connectable=0;fillColor=none;top=0;left=0;bottom=0;right=0;fontStyle=1;overflow=hidden;html=1;whiteSpace=wrap;" vertex="1" parent="CWKQkK011dTpoDnvCcvi-47">
          <mxGeometry width="60" height="30" as="geometry">
            <mxRectangle width="60" height="30" as="alternateBounds" />
          </mxGeometry>
        </mxCell>
        <mxCell id="CWKQkK011dTpoDnvCcvi-49" value="id_usuario2" style="shape=partialRectangle;connectable=0;fillColor=none;top=0;left=0;bottom=0;right=0;align=left;spacingLeft=6;fontStyle=5;overflow=hidden;html=1;whiteSpace=wrap;" vertex="1" parent="CWKQkK011dTpoDnvCcvi-47">
          <mxGeometry x="60" width="120" height="30" as="geometry">
            <mxRectangle width="120" height="30" as="alternateBounds" />
          </mxGeometry>
        </mxCell>
        <mxCell id="CWKQkK011dTpoDnvCcvi-50" value="" style="shape=tableRow;horizontal=0;startSize=0;swimlaneHead=0;swimlaneBody=0;fillColor=none;collapsible=0;dropTarget=0;points=[[0,0.5],[1,0.5]];portConstraint=eastwest;top=0;left=0;right=0;bottom=0;html=1;" vertex="1" parent="CWKQkK011dTpoDnvCcvi-43">
          <mxGeometry y="90" width="180" height="30" as="geometry" />
        </mxCell>
        <mxCell id="CWKQkK011dTpoDnvCcvi-51" value="" style="shape=partialRectangle;connectable=0;fillColor=none;top=0;left=0;bottom=0;right=0;editable=1;overflow=hidden;html=1;whiteSpace=wrap;" vertex="1" parent="CWKQkK011dTpoDnvCcvi-50">
          <mxGeometry width="60" height="30" as="geometry">
            <mxRectangle width="60" height="30" as="alternateBounds" />
          </mxGeometry>
        </mxCell>
        <mxCell id="CWKQkK011dTpoDnvCcvi-52" value="fecha_amistad" style="shape=partialRectangle;connectable=0;fillColor=none;top=0;left=0;bottom=0;right=0;align=left;spacingLeft=6;overflow=hidden;html=1;whiteSpace=wrap;" vertex="1" parent="CWKQkK011dTpoDnvCcvi-50">
          <mxGeometry x="60" width="120" height="30" as="geometry">
            <mxRectangle width="120" height="30" as="alternateBounds" />
          </mxGeometry>
        </mxCell>
        <mxCell id="CWKQkK011dTpoDnvCcvi-56" value="" style="edgeStyle=entityRelationEdgeStyle;fontSize=12;html=1;endArrow=ERoneToMany;rounded=0;" edge="1" parent="1" source="CWKQkK011dTpoDnvCcvi-2" target="CWKQkK011dTpoDnvCcvi-15">
          <mxGeometry width="100" height="100" relative="1" as="geometry">
            <mxPoint x="260" y="540" as="sourcePoint" />
            <mxPoint x="360" y="440" as="targetPoint" />
          </mxGeometry>
        </mxCell>
        <mxCell id="CWKQkK011dTpoDnvCcvi-57" value="" style="edgeStyle=entityRelationEdgeStyle;fontSize=12;html=1;endArrow=ERoneToMany;rounded=0;" edge="1" parent="1" source="CWKQkK011dTpoDnvCcvi-2" target="CWKQkK011dTpoDnvCcvi-34">
          <mxGeometry width="100" height="100" relative="1" as="geometry">
            <mxPoint x="520" y="585" as="sourcePoint" />
            <mxPoint x="620" y="485" as="targetPoint" />
          </mxGeometry>
        </mxCell>
        <mxCell id="CWKQkK011dTpoDnvCcvi-58" value="" style="edgeStyle=entityRelationEdgeStyle;fontSize=12;html=1;endArrow=ERoneToMany;rounded=0;" edge="1" parent="1" source="CWKQkK011dTpoDnvCcvi-2" target="CWKQkK011dTpoDnvCcvi-44">
          <mxGeometry width="100" height="100" relative="1" as="geometry">
            <mxPoint x="360" y="730" as="sourcePoint" />
            <mxPoint x="460" y="630" as="targetPoint" />
          </mxGeometry>
        </mxCell>
        <mxCell id="CWKQkK011dTpoDnvCcvi-59" value="1:N" style="text;strokeColor=none;fillColor=none;spacingLeft=4;spacingRight=4;overflow=hidden;rotatable=0;points=[[0,0.5],[1,0.5]];portConstraint=eastwest;fontSize=12;whiteSpace=wrap;html=1;" vertex="1" parent="1">
          <mxGeometry x="280" y="600" width="40" height="30" as="geometry" />
        </mxCell>
        <mxCell id="CWKQkK011dTpoDnvCcvi-60" value="1:N" style="text;strokeColor=none;fillColor=none;spacingLeft=4;spacingRight=4;overflow=hidden;rotatable=0;points=[[0,0.5],[1,0.5]];portConstraint=eastwest;fontSize=12;whiteSpace=wrap;html=1;" vertex="1" parent="1">
          <mxGeometry x="550" y="585" width="40" height="30" as="geometry" />
        </mxCell>
        <mxCell id="CWKQkK011dTpoDnvCcvi-61" value="1:N" style="text;strokeColor=none;fillColor=none;spacingLeft=4;spacingRight=4;overflow=hidden;rotatable=0;points=[[0,0.5],[1,0.5]];portConstraint=eastwest;fontSize=12;whiteSpace=wrap;html=1;" vertex="1" parent="1">
          <mxGeometry x="540" y="700" width="40" height="30" as="geometry" />
        </mxCell>
      </root>
    </mxGraphModel>
  </diagram>
</mxfile>
